<svg width="56" height="67" viewBox="0 0 56 67" fill="none" xmlns="http://www.w3.org/2000/svg">
<path fill-rule="evenodd" clip-rule="evenodd" d="M18.9524 49.9652C17.8528 48.74 16.7131 47.5726 15.4926 46.3194C8.69409 39.3621 -0.474708 29.9647 0.0191355 18.7969C0.402147 10.0492 7.21067 4.30752 16.0273 1.68564C23.8332 -0.561879 32.1671 -0.561879 39.9734 1.68564C48.7899 4.30785 55.5985 10.0497 55.9816 18.8066C56.4655 29.9749 47.2967 39.3629 40.5082 46.3291C39.2776 47.5829 38.148 48.7408 37.0384 49.9749L36.1006 51.0181V51.1044H19.9615L18.9529 49.994L18.9524 49.9652ZM30.2194 6.51819V43.3626C37.28 29.2758 44.654 14.1468 35.7874 7.27472V7.27409C33.9566 6.87457 32.0943 6.62217 30.2194 6.51817V6.51819ZM26.1239 43.611V6.49871C24.2402 6.58749 22.3681 6.82466 20.5258 7.20644C11.4479 14.0776 18.9624 29.3991 26.1239 43.5719V43.611ZM43.5231 10.2879C46.62 18.5751 41.8386 29.9723 36.3208 41.1596C42.1916 35.1305 49.5649 27.2067 49.212 19.0529C49.0509 15.3019 46.8417 12.3542 43.5231 10.2869V10.2879ZM20.1314 41.6287C14.4725 30.2119 9.48944 18.5367 12.768 10.106C9.2983 12.2019 6.9581 15.1876 6.7863 19.0541C6.42335 27.4275 14.1905 35.5419 20.1314 41.6283V41.6287Z" fill="white"/>
<path fill-rule="evenodd" clip-rule="evenodd" d="M36.0914 52.5303L35.3147 58.5117V63.4975C35.3147 65.4114 33.3683 67 30.9873 67H25.0865C22.7063 67 20.7592 65.4209 20.7592 63.4975V58.7127L19.9624 52.5595H23.2711L23.8159 56.7316H32.2381L32.7829 52.5595L36.0914 52.5303Z" fill="white"/>
</svg>
